<?xml version="1.0" standalone="no"?>
<!DOCTYPE svg PUBLIC "-//W3C//DTD SVG 20010904//EN"
 "http://www.w3.org/TR/2001/REC-SVG-20010904/DTD/svg10.dtd">
<svg version="1.0" xmlns="http://www.w3.org/2000/svg"
 width="281.000000pt" height="281.000000pt" viewBox="0 0 281.000000 281.000000"
 preserveAspectRatio="xMidYMid meet">

<g transform="translate(0.000000,281.000000) scale(0.100000,-0.100000)"
fill="#000000" stroke="none">
<path d="M561 1719 c-30 -10 -57 -21 -59 -24 -10 -10 63 8 92 22 32 17 76 10
76 -12 0 -8 -17 -23 -37 -34 l-38 -20 47 2 c46 2 46 2 41 32 -6 33 -28 55 -52
54 -9 0 -40 -9 -70 -20z"/>
<path d="M452 1668 c-18 -13 -59 -54 -92 -91 -65 -73 -82 -102 -25 -41 24 26
41 35 55 31 17 -4 18 -2 9 14 -8 16 -5 25 18 47 15 15 39 35 53 44 14 9 23 17
20 17 -3 1 -20 -9 -38 -21z"/>
<path d="M539 1632 c-33 -38 -77 -68 -91 -64 -5 1 -8 -5 -8 -14 0 -10 -6 -14
-14 -11 -11 4 -13 1 -9 -10 4 -9 -1 -21 -11 -29 -10 -7 -15 -17 -11 -23 4 -7
-1 -8 -12 -4 -17 6 -17 5 0 -14 21 -24 22 -37 3 -30 -11 5 -12 0 -2 -24 10
-28 11 -28 20 -10 4 10 17 21 27 24 23 6 26 47 4 47 -29 0 -14 39 27 72 58 45
127 118 118 123 -4 3 -23 -12 -41 -33z"/>
<path d="M730 1615 c13 -14 26 -25 28 -25 3 0 -5 11 -18 25 -13 14 -26 25 -28
25 -3 0 5 -11 18 -25z"/>
<path d="M635 1610 c-3 -5 1 -20 10 -34 10 -15 14 -33 10 -49 -8 -29 9 -44 30
-27 20 16 19 70 -1 98 -16 23 -39 29 -49 12z m49 -50 l7 -25 -15 25 c-17 28
-21 50 -7 35 5 -6 12 -21 15 -35z"/>
<path d="M566 1601 c-10 -16 5 -42 23 -39 21 4 21 42 -1 46 -9 2 -19 -1 -22
-7z"/>
<path d="M783 1549 c-2 -27 0 -29 32 -26 19 1 31 4 27 7 -4 3 -18 15 -32 27
l-25 22 -2 -30z"/>
<path d="M1573 1544 c-6 -11 -26 -67 -42 -124 -17 -57 -36 -109 -43 -117 -8
-10 -8 -17 0 -25 7 -7 19 -5 39 10 16 11 44 27 63 36 l35 16 -33 -6 c-44 -8
-47 7 -22 106 12 45 20 92 18 104 l-3 21 -12 -21z"/>
<path d="M492 1518 c-17 -21 -25 -65 -18 -104 6 -29 11 -35 29 -32 19 3 22 10
24 53 1 28 3 59 5 70 4 23 -24 32 -40 13z m21 -105 c-3 -7 -9 -13 -14 -13 -11
0 -12 84 -1 94 8 9 22 -63 15 -81z"/>
<path d="M970 1484 c0 -11 -6 -14 -22 -8 -21 6 -21 6 -5 -10 9 -10 17 -24 17
-32 0 -17 12 -18 28 -2 9 9 19 5 42 -17 29 -28 31 -45 5 -45 -7 0 -17 9 -20
20 -9 27 -24 25 -35 -5 -9 -23 -14 -24 -107 -28 -54 -2 -32 -3 50 -2 147 1
147 1 147 -22 0 -23 -8 -27 -70 -36 -17 -3 -14 -5 12 -6 56 -2 68 6 68 48 0
30 -8 44 -45 81 -31 31 -43 50 -39 62 3 12 0 18 -10 18 -9 0 -16 -7 -16 -16z"/>
<path d="M735 1448 c-14 -11 -35 -37 -45 -59 l-20 -39 -98 -2 -97 -2 86 -3
c71 -3 90 -7 104 -23 23 -25 31 -25 38 0 4 14 14 20 34 20 l28 1 -23 13 -24
13 41 32 c23 18 41 39 41 46 0 22 -38 24 -65 3z"/>
<path d="M1666 1429 c-29 -35 -31 -40 -14 -57 15 -15 32 -16 22 -1 -3 6 6 23
21 39 15 16 24 33 21 39 -11 18 -23 13 -50 -20z"/>
<path d="M262 1397 c-12 -47 1 -103 28 -117 12 -6 75 -9 157 -7 l138 3 -142 2
-142 2 -16 30 c-18 35 -20 81 -3 98 18 18 55 15 67 -5 6 -10 10 -13 11 -8 0
21 -16 33 -52 37 -35 4 -37 2 -46 -35z"/>
<path d="M851 1416 c-14 -17 -7 -36 14 -36 22 0 29 20 13 36 -13 13 -16 13
-27 0z"/>
<path d="M584 1409 c-10 -17 13 -36 27 -22 12 12 4 33 -11 33 -5 0 -12 -5 -16
-11z"/>
<path d="M1705 1390 c-15 -17 -16 -20 -3 -20 9 0 18 9 21 20 3 11 4 20 3 20
-2 0 -11 -9 -21 -20z"/>
<path d="M362 1357 c3 -19 9 -22 48 -23 40 -1 41 -1 7 3 -27 3 -37 8 -33 18 2
7 -2 16 -10 19 -11 4 -15 0 -12 -17z"/>
<path d="M695 1280 l-110 -6 100 -1 c55 -1 123 2 150 7 46 7 47 7 10 7 -22 -1
-89 -4 -150 -7z"/>
<path d="M913 1283 c9 -2 23 -2 30 0 6 3 -1 5 -18 5 -16 0 -22 -2 -12 -5z"/>
<path d="M955 1178 c-27 -5 -63 -11 -79 -12 -23 -1 -31 -7 -37 -28 -8 -31 1
-41 25 -32 23 9 20 -9 -13 -74 -33 -65 -84 -220 -76 -231 9 -15 57 2 66 23 4
11 16 47 24 78 20 70 36 88 80 88 19 0 37 5 40 10 3 6 13 10 22 10 25 0 83 31
114 62 82 82 -7 138 -166 106z m153 -65 c3 -18 -5 -27 -35 -40 -21 -10 -40
-20 -43 -23 -3 -3 -27 -15 -54 -28 -67 -32 -77 -18 -37 52 34 58 46 65 126 62
33 -1 41 -5 43 -23z"/>
<path d="M1155 1059 c-4 -6 -5 -13 -2 -16 7 -7 27 6 27 18 0 12 -17 12 -25 -2z"/>
<path d="M1298 1037 c-66 -26 -77 -34 -55 -43 9 -3 32 6 54 20 80 55 85 22 8
-54 -44 -44 -52 -56 -40 -63 9 -4 23 -6 33 -3 9 3 23 1 31 -3 34 -22 -44 -161
-90 -161 -25 0 -16 23 33 83 47 56 43 60 -13 10 -72 -65 -87 -123 -32 -123 54
0 114 59 143 142 12 31 11 40 -2 60 -15 22 -14 26 13 56 34 37 38 77 10 92
-25 13 -25 13 -93 -13z"/>
<path d="M1525 1044 c-22 -9 -50 -18 -62 -21 -25 -6 -32 -33 -8 -33 8 0 31 11
51 25 80 54 86 21 9 -55 -56 -56 -61 -76 -16 -67 43 9 55 -4 42 -46 -18 -52
-68 -117 -91 -117 -11 0 -20 3 -20 8 0 11 39 74 64 101 l21 25 -33 -23 c-41
-28 -85 -93 -80 -118 5 -27 52 -28 89 -2 46 32 89 106 89 150 0 21 -5 41 -11
44 -7 5 -4 15 9 29 22 24 42 60 42 75 0 14 -29 41 -43 41 -7 -1 -30 -8 -52
-16z"/>
<path d="M1693 998 c-11 -13 -26 -33 -32 -45 -21 -40 20 -84 58 -63 10 5 26 7
37 4 16 -4 19 1 21 31 1 19 -1 35 -5 35 -3 0 -19 -12 -34 -27 -40 -39 -35 -10
6 31 25 25 31 37 23 45 -18 18 -52 13 -74 -11z"/>
<path d="M1144 1002 c-20 -13 -44 -70 -44 -106 0 -65 72 -70 120 -8 31 39 23
50 -10 13 -17 -18 -36 -31 -43 -28 -13 4 -15 77 -2 115 7 22 -1 28 -21 14z"/>
<path d="M1822 919 c-18 -16 -26 -29 -19 -29 14 0 63 47 56 54 -2 2 -19 -9
-37 -25z"/>
<path d="M1184 639 c-4 -7 1 -16 12 -22 17 -10 17 -11 -1 -18 -15 -6 -12 -8
13 -6 19 1 32 7 32 14 0 19 18 16 23 -4 4 -17 5 -17 6 0 0 9 5 17 10 17 5 0
12 -8 14 -17 4 -14 5 -12 6 5 1 19 -4 22 -34 22 -19 0 -35 -5 -35 -10 0 -7 -8
-6 -22 1 -22 12 -22 12 -3 20 16 6 17 8 3 8 -9 1 -20 -4 -24 -10z"/>
<path d="M1661 624 c-1 -28 2 -31 32 -31 26 -1 28 1 12 7 -17 7 -17 9 -2 9 24
1 22 16 -3 18 -12 1 -20 -5 -21 -15 -1 -9 -5 -3 -9 13 l-8 30 -1 -31z"/>
<path d="M1802 620 c0 -19 2 -27 5 -17 2 9 8 17 13 17 5 0 11 -8 13 -17 4 -14
5 -12 6 5 1 13 -5 22 -13 22 -8 0 -17 6 -19 13 -3 6 -5 -4 -5 -23z"/>
<path d="M1392 618 c2 -12 8 -23 14 -25 7 -2 10 6 7 22 -6 30 -26 34 -21 3z"/>
<path d="M1322 618 c-18 -18 -15 -28 8 -28 13 0 20 7 20 20 0 23 -10 26 -28 8z"/>
<path d="M1360 610 c0 -11 2 -20 4 -20 2 0 6 9 9 20 3 11 1 20 -4 20 -5 0 -9
-9 -9 -20z"/>
<path d="M1450 605 c0 -23 2 -24 20 -15 11 6 20 17 20 25 0 8 -9 15 -20 15
-15 0 -20 -7 -20 -25z m30 5 c0 -5 -4 -10 -10 -10 -5 0 -10 5 -10 10 0 6 5 10
10 10 6 0 10 -4 10 -10z"/>
<path d="M1500 608 c0 -11 7 -18 18 -18 14 0 15 2 2 10 -12 8 -11 10 7 10 12
0 23 -5 25 -12 6 -16 38 -2 38 16 0 12 -11 15 -45 13 -36 -1 -45 -5 -45 -19z
m80 2 c0 -5 -4 -10 -10 -10 -5 0 -10 5 -10 10 0 6 5 10 10 10 6 0 10 -4 10
-10z"/>
<path d="M1601 598 c0 -18 3 -27 6 -20 2 6 11 12 19 12 8 0 14 9 14 20 0 13
-7 20 -20 20 -16 0 -20 -6 -19 -32z m29 12 c0 -5 -4 -10 -10 -10 -5 0 -10 5
-10 10 0 6 5 10 10 10 6 0 10 -4 10 -10z"/>
<path d="M1752 613 c2 -10 12 -19 23 -20 16 -1 16 -1 3 3 -10 3 -18 9 -18 14
0 5 8 11 18 13 12 3 11 5 -6 6 -17 1 -23 -4 -20 -16z"/>
<path d="M1850 609 c0 -14 5 -19 17 -17 26 5 29 38 4 38 -15 0 -21 -6 -21 -21z
m30 1 c0 -5 -4 -10 -10 -10 -5 0 -10 5 -10 10 0 6 5 10 10 10 6 0 10 -4 10
-10z"/>
<path d="M1902 613 c5 -26 38 -29 38 -4 0 15 -6 21 -21 21 -14 0 -19 -5 -17
-17z m28 -3 c0 -5 -4 -10 -10 -10 -5 0 -10 5 -10 10 0 6 5 10 10 10 6 0 10 -4
10 -10z"/>
<path d="M1950 621 c0 -6 6 -11 13 -11 9 0 9 -2 -1 -9 -9 -5 2 -8 30 -8 31 0
37 2 23 8 -17 6 -17 8 -2 8 9 1 17 5 17 9 0 12 -34 11 -42 -1 -4 -7 -12 -6
-22 2 -11 9 -16 10 -16 2z"/>
<path d="M2070 605 c0 -23 2 -24 20 -15 11 6 20 17 20 25 0 8 -9 15 -20 15
-15 0 -20 -7 -20 -25z m30 5 c0 -5 -4 -10 -10 -10 -5 0 -10 5 -10 10 0 6 5 10
10 10 6 0 10 -4 10 -10z"/>
<path d="M2122 610 c0 -14 2 -19 5 -12 2 6 2 18 0 25 -3 6 -5 1 -5 -13z"/>
<path d="M2146 614 c-9 -23 -8 -24 12 -23 11 0 12 2 4 6 -10 4 -10 8 -1 19 7
8 7 14 1 14 -5 0 -13 -7 -16 -16z"/>
<path d="M2190 610 c-8 -15 -8 -20 3 -20 7 0 13 9 13 20 0 11 -1 20 -3 20 -1
0 -7 -9 -13 -20z"/>
<path d="M2222 612 c2 -9 12 -18 23 -19 20 -3 20 -3 0 6 -17 8 -18 10 -2 10
24 1 21 16 -4 18 -14 1 -19 -3 -17 -15z"/>
<path d="M2270 610 c0 -11 2 -20 4 -20 2 0 6 9 9 20 3 11 1 20 -4 20 -5 0 -9
-9 -9 -20z"/>
<path d="M2310 621 c0 -6 6 -11 13 -11 8 0 7 -4 -3 -10 -13 -8 -12 -10 3 -10
21 0 22 13 2 30 -10 9 -15 9 -15 1z"/>
</g>
</svg>
